<?xml version="1.0" encoding="UTF-8" standalone="no"?>
<svg xmlns="http://www.w3.org/2000/svg" version="1.0" width="3354.000000pt" height="1018.000000pt" viewBox="0 0 3354.000000 1018.000000" preserveAspectRatio="xMidYMid meet">
  <g transform="translate(0.000000,1018.000000) scale(0.100000,-0.100000)" fill="#ffffff" stroke="none">
    <path d="M9764 10009 c-42 -45 -205 -166 -311 -231 -174 -109 -376 -199 -935 -421 -660 -263 -1612 -640 -3003 -1192 -550 -218 -1128 -448 -1285 -510 -157 -62 -496 -197 -755 -299 l-470 -186 -70 -73 c-279 -288 -413 -802 -324 -1241 51 -255 166 -486 350 -707 l36 -44 244 97 c134 53 489 194 789 313 300 119 748 296 995 395 248 98 671 266 940 373 270 107 720 285 1000 397 1453 577 1393 551 1584 672 445 280 784 707 945 1188 46 138 98 388 221 1060 31 168 63 334 71 369 8 35 13 65 11 67 -2 2 -17 -10 -33 -27z"></path>
    <path d="M16898 7104 c-182 -28 -298 -86 -411 -204 -125 -131 -188 -288 -209 -522 -21 -228 12 -427 101 -613 91 -190 205 -323 553 -648 169 -158 253 -258 307 -366 56 -111 75 -198 69 -323 -5 -121 -26 -176 -81 -225 -103 -91 -315 -76 -382 26 -48 72 -57 116 -62 304 l-6 177 -259 0 -260 0 5 -217 c5 -255 20 -331 93 -482 84 -172 222 -284 429 -347 84 -26 101 -28 275 -28 158 0 196 3 263 22 314 87 492 308 536 667 31 250 -5 471 -110 681 -89 179 -181 286 -533 619 -186 176 -262 266 -316 374 -112 225 -86 513 53 584 48 25 157 33 217 17 63 -17 123 -79 144 -150 10 -31 20 -110 23 -182 l6 -128 260 0 259 0 -5 168 c-6 200 -26 292 -93 431 -63 128 -162 230 -284 289 -171 84 -370 110 -582 76z"></path>
    <path d="M21095 7106 c-355 -58 -550 -244 -632 -601 -15 -61 -17 -195 -20 -1065 -3 -640 0 -1029 6 -1090 41 -374 224 -606 547 -691 112 -30 328 -37 452 -15 215 37 378 135 484 289 52 76 84 150 116 267 l27 95 3 1020 c4 1213 4 1199 -99 1413 -90 186 -238 302 -457 358 -121 31 -309 40 -427 20z m312 -532 c63 -39 99 -109 114 -219 6 -52 9 -412 7 -1040 -3 -926 -4 -962 -23 -1015 -26 -72 -85 -132 -148 -149 -29 -8 -76 -12 -121 -9 -123 8 -188 59 -221 173 -13 45 -15 191 -13 1081 3 1021 3 1029 24 1074 47 101 124 142 256 137 65 -3 85 -8 125 -33z"></path>
    <path d="M25120 7109 c-299 -40 -508 -209 -599 -484 -52 -158 -53 -183 -49 -1310 l4 -1040 22 -85 c73 -277 232 -445 497 -526 84 -26 101 -28 275 -28 159 0 196 3 265 22 315 86 494 313 535 678 7 65 10 296 8 669 l-3 570 -380 0 -380 0 -3 -252 -2 -253 120 0 121 0 -3 -367 c-4 -416 -7 -433 -78 -497 -76 -68 -216 -84 -317 -35 -52 25 -75 53 -105 127 l-23 57 -3 960 c-2 627 1 988 7 1040 22 164 93 243 229 253 101 7 170 -16 219 -72 61 -69 65 -92 72 -371 l6 -250 260 0 260 0 3 200 c5 312 -19 458 -101 625 -54 111 -168 228 -275 284 -146 75 -388 111 -582 85z"></path>
    <path d="M10257 7073 c-4 -3 -7 -771 -7 -1705 l0 -1698 278 2 277 3 3 697 2 698 343 2 342 3 0 245 0 245 -342 3 -343 2 0 500 0 500 433 2 432 3 0 250 0 250 -706 3 c-388 1 -709 -1 -712 -5z"></path>
    <path d="M12440 7075 c0 -10 -258 -1629 -360 -2260 -66 -404 -180 -1126 -180 -1137 0 -4 115 -8 255 -8 l254 0 6 32 c10 60 85 561 85 570 0 4 141 7 317 6 l318 -3 45 -300 45 -300 278 -3 277 -2 0 23 c0 22 -96 634 -210 1337 -76 470 -172 1072 -258 1615 l-68 430 -402 3 c-221 1 -402 0 -402 -3z m445 -1150 c62 -414 110 -733 153 -1027 l19 -128 -238 0 c-212 0 -239 2 -239 16 0 16 118 821 190 1294 22 146 40 271 40 279 0 47 15 -40 75 -434z"></path>
    <path d="M14140 5375 l0 -1705 250 0 250 0 1 1178 1 1177 24 -85 c13 -47 54 -195 90 -330 36 -135 141 -526 234 -870 93 -344 196 -724 228 -845 l59 -220 286 -3 287 -2 -2 1702 -3 1703 -245 0 -245 0 -5 -964 -5 -963 -48 178 c-27 99 -102 379 -167 624 -66 245 -161 598 -212 785 l-93 340 -342 3 -343 2 0 -1705z"></path>
    <path d="M18290 5375 l0 -1705 275 0 275 0 0 725 0 725 290 0 290 0 0 -725 0 -725 283 2 282 3 0 1700 0 1700 -280 0 -280 0 -3 -722 -2 -723 -290 0 -290 0 -2 723 -3 722 -272 3 -273 2 0 -1705z"></path>
    <path d="M22530 5375 l0 -1705 275 0 275 0 0 635 0 635 153 0 c357 0 544 62 700 230 104 113 161 251 186 455 16 132 14 666 -4 796 -27 206 -93 347 -217 465 -111 105 -239 160 -428 184 -46 5 -277 10 -512 10 l-428 0 0 -1705z m925 1169 c48 -25 80 -70 101 -140 13 -44 15 -113 12 -416 l-3 -363 -30 -60 c-24 -47 -40 -65 -75 -85 -42 -23 -56 -25 -212 -28 l-168 -4 0 562 0 561 168 -3 c146 -3 172 -6 207 -24z"></path>
    <path d="M26527 7073 c-4 -3 -7 -771 -7 -1705 l0 -1698 243 2 242 3 5 1095 c3 602 6 1092 8 1087 3 -11 244 -1456 301 -1812 28 -170 53 -325 56 -342 l6 -33 264 0 c146 0 265 3 265 6 0 5 224 1497 297 1979 l38 250 5 -1115 5 -1115 263 -3 262 -2 -2 1702 -3 1703 -380 0 -379 0 -62 -410 c-64 -423 -241 -1596 -271 -1790 -14 -92 -18 -105 -25 -80 -7 25 -257 1548 -346 2105 l-28 175 -375 3 c-207 1 -378 -1 -382 -5z"></path>
    <path d="M29280 5374 l0 -1705 523 4 c565 4 567 4 716 63 250 99 390 310 421 632 22 229 8 548 -30 697 -43 171 -151 320 -284 391 l-58 31 44 26 c127 74 221 221 260 402 18 84 21 134 21 315 0 181 -3 231 -21 315 -67 315 -267 485 -617 525 -49 5 -289 10 -532 10 l-443 0 0 -1706z m895 1185 c23 -7 57 -28 81 -53 63 -62 76 -115 81 -326 7 -282 -25 -385 -142 -445 -57 -29 -61 -30 -209 -30 l-151 0 -3 420 c-1 231 0 426 3 432 6 17 282 18 340 2z m61 -1396 c58 -31 108 -93 129 -161 14 -46 19 -106 22 -300 7 -323 -9 -410 -87 -475 -47 -40 -90 -47 -287 -47 l-183 0 0 498 c0 274 3 502 8 506 4 4 86 6 182 4 157 -3 179 -6 216 -25z"></path>
    <path d="M31377 7073 c-4 -3 -7 -771 -7 -1705 l0 -1698 278 2 277 3 3 723 2 722 288 -2 287 -3 3 -722 2 -723 280 0 280 0 -2 1703 -3 1702 -277 3 -278 2 -2 -722 -3 -723 -287 -3 -288 -2 -2 722 -3 723 -271 3 c-149 1 -273 -1 -277 -5z"></path>
    <path d="M2170 6836 c-319 -131 -448 -201 -655 -356 -167 -125 -266 -213 -383 -342 -400 -441 -632 -973 -658 -1507 -12 -230 21 -458 97 -678 48 -138 87 -218 166 -338 63 -95 99 -140 737 -925 78 -96 315 -389 527 -650 949 -1170 1132 -1396 1269 -1565 80 -99 172 -213 204 -252 l58 -73 1445 0 c844 0 1443 4 1441 9 -1 5 -174 220 -383 477 -209 258 -469 578 -577 712 -109 133 -215 264 -237 290 -21 26 -232 286 -468 577 -236 292 -545 674 -688 850 -143 176 -318 392 -390 481 -325 401 -737 909 -994 1224 -237 292 -351 479 -424 700 -74 221 -103 430 -94 665 11 267 61 483 171 738 9 20 15 37 14 36 -2 0 -82 -33 -178 -73z"></path>
    <path d="M9079 6554 c-207 -180 -493 -338 -909 -502 -234 -92 -1193 -472 -1645 -652 -220 -87 -645 -256 -945 -375 -300 -119 -725 -287 -945 -375 -220 -87 -521 -206 -670 -265 -148 -59 -273 -110 -277 -114 -8 -7 60 -93 331 -426 81 -99 321 -395 534 -657 376 -463 388 -477 413 -468 14 6 222 89 462 184 241 96 723 287 1072 426 972 385 1127 448 1240 507 450 235 816 617 1023 1070 95 208 127 319 191 670 45 245 185 993 190 1016 2 9 3 17 2 17 -1 0 -31 -25 -67 -56z"></path>
    <path d="M20967 3374 c-102 -32 -178 -153 -163 -258 8 -51 54 -151 98 -212 17 -24 29 -45 27 -47 -2 -2 -25 -11 -51 -21 -62 -23 -142 -96 -176 -160 -23 -44 -27 -63 -27 -141 0 -81 3 -95 29 -143 35 -62 76 -101 149 -140 48 -25 60 -27 172 -27 106 0 126 3 174 25 30 13 74 39 97 56 l43 33 41 -55 42 -54 59 0 c39 0 59 4 59 12 0 6 -31 53 -70 103 -38 50 -70 96 -70 103 0 6 34 99 75 207 42 108 73 200 70 205 -4 6 -28 10 -55 10 l-49 0 -19 -52 c-57 -152 -104 -268 -108 -268 -2 0 -57 71 -123 158 -65 86 -150 198 -188 248 -93 122 -111 192 -66 261 22 33 92 63 147 63 26 0 69 -9 97 -21 54 -24 62 -21 91 29 18 29 17 30 -6 45 -43 28 -144 57 -198 56 -29 0 -75 -7 -101 -15z m164 -771 c67 -86 124 -165 126 -174 13 -47 -160 -117 -259 -106 -130 16 -209 89 -216 201 -6 98 41 171 138 215 78 35 77 36 211 -136z"></path>
    <path d="M22185 3358 c-3 -7 -4 -263 -3 -568 l3 -555 63 -3 62 -3 0 388 c1 354 2 386 17 368 8 -11 97 -137 197 -279 99 -143 186 -261 191 -263 6 -2 98 126 205 283 l195 287 3 -391 2 -392 65 0 65 0 0 570 c0 371 -3 570 -10 570 -12 0 -63 -69 -314 -427 -109 -156 -201 -285 -205 -287 -7 -5 -293 391 -450 622 -62 91 -77 104 -86 80z"></path>
    <path d="M27920 3218 c-35 -84 -132 -322 -216 -528 -84 -206 -159 -391 -168 -411 -8 -20 -12 -39 -9 -43 4 -3 32 -6 63 -6 l56 0 75 188 75 187 199 2 200 3 75 -188 75 -187 63 -3 c34 -2 62 1 62 6 0 9 -28 77 -272 672 -196 477 -189 460 -202 460 -7 0 -41 -69 -76 -152z m156 -308 l71 -180 -148 0 c-82 0 -149 4 -149 8 0 5 27 75 61 158 33 82 64 159 69 172 5 12 13 22 17 22 5 0 40 -81 79 -180z"></path>
    <path d="M28665 3358 c-3 -7 -4 -263 -3 -568 l3 -555 60 0 60 0 5 419 5 420 45 -55 c75 -92 205 -238 461 -519 57 -63 144 -161 193 -218 50 -57 93 -99 98 -94 4 4 7 262 6 573 l-3 564 -51 3 c-34 2 -55 -2 -62 -11 -8 -10 -13 -132 -14 -420 l-3 -405 -56 66 c-31 37 -172 195 -315 352 -143 157 -292 323 -333 370 -78 91 -88 99 -96 78z"></path>
    <path d="M18744 3325 c-198 -43 -360 -198 -420 -400 -28 -95 -24 -240 9 -338 45 -131 119 -226 227 -292 156 -94 387 -102 568 -20 28 13 52 30 52 37 0 7 -11 31 -23 53 -27 47 -32 47 -137 10 -66 -24 -86 -27 -176 -23 -93 3 -107 6 -177 41 -184 91 -274 291 -221 492 55 215 270 357 492 325 38 -5 91 -19 116 -30 26 -11 51 -20 54 -20 4 0 19 22 35 49 l27 49 -53 26 c-105 52 -250 68 -373 41z"></path>
    <path d="M25833 3325 c-127 -28 -275 -128 -342 -234 -81 -126 -112 -277 -87 -421 38 -214 179 -373 385 -434 68 -20 245 -21 318 -2 67 18 163 62 163 75 0 6 -10 31 -22 56 -21 42 -48 59 -62 37 -3 -5 -40 -19 -82 -32 -107 -32 -243 -26 -328 13 -144 67 -230 187 -251 353 -15 115 39 259 129 350 127 127 331 166 494 94 25 -11 48 -20 52 -20 7 0 60 86 60 97 0 11 -115 55 -177 68 -83 18 -168 18 -250 0z"></path>
    <path d="M10227 3323 c-4 -3 -7 -30 -7 -59 0 -38 4 -53 16 -58 9 -3 71 -6 140 -6 l124 0 2 -482 3 -483 60 0 60 0 3 483 2 482 133 0 c90 0 137 4 145 12 7 7 12 30 12 53 0 23 -5 46 -12 53 -9 9 -99 12 -343 12 -183 0 -335 -3 -338 -7z"></path>
    <path d="M11167 3323 c-4 -3 -7 -251 -7 -550 l0 -543 358 2 357 3 0 55 0 55 -297 3 -298 2 0 185 0 185 255 0 255 0 0 60 0 60 -255 0 -255 0 0 185 0 185 288 2 287 3 3 34 c2 19 1 44 -2 57 l-6 24 -339 0 c-186 0 -341 -3 -344 -7z"></path>
    <path d="M12010 3315 c0 -8 39 -74 87 -147 47 -73 121 -188 164 -256 l79 -122 -111 -173 c-61 -94 -139 -216 -175 -271 -35 -54 -61 -103 -58 -107 3 -5 36 -9 73 -9 l68 0 132 213 c166 270 149 245 160 227 5 -8 69 -110 143 -227 l133 -212 73 -1 c47 0 72 4 72 11 0 6 -77 130 -171 275 -95 146 -169 270 -166 278 3 8 76 125 161 261 86 135 156 253 156 261 0 12 -13 14 -67 12 l-68 -3 -131 -210 c-72 -115 -135 -210 -139 -210 -5 0 -69 96 -143 213 l-134 212 -69 0 c-54 0 -69 -3 -69 -15z"></path>
    <path d="M12972 3318 c-16 -16 -16 -90 0 -106 8 -8 55 -12 145 -12 l133 0 0 -485 0 -485 60 0 60 0 0 485 0 485 133 0 c72 0 138 4 145 9 9 5 12 25 10 62 l-3 54 -335 3 c-253 2 -339 -1 -348 -10z"></path>
    <path d="M13900 2780 l0 -550 60 0 60 0 -2 548 -3 547 -57 3 -58 3 0 -551z"></path>
    <path d="M14355 3318 c-3 -7 -4 -254 -3 -548 l3 -535 348 -3 348 -2 -3 57 -3 58 -282 3 -283 2 -2 488 -3 487 -58 3 c-40 2 -59 -1 -62 -10z"></path>
    <path d="M15248 3324 c-5 -4 -8 -252 -8 -551 l0 -543 198 0 c138 0 216 5 260 15 181 43 330 183 384 360 25 82 29 220 9 305 -46 193 -193 340 -396 395 -65 18 -434 34 -447 19z m484 -161 c121 -57 199 -151 233 -278 39 -152 -5 -316 -113 -417 -94 -88 -186 -118 -364 -118 l-118 0 0 426 0 426 148 -4 c140 -3 150 -5 214 -35z"></path>
    <path d="M16368 3324 c-5 -4 -8 -252 -8 -551 l0 -543 60 0 60 0 2 213 3 212 102 3 101 3 134 -216 133 -215 67 0 c37 0 69 4 72 9 3 5 -11 35 -32 67 -21 33 -82 132 -136 221 l-97 163 59 58 c51 49 63 68 81 126 25 81 27 163 5 235 -22 74 -107 160 -189 191 -52 20 -84 24 -235 28 -96 2 -178 1 -182 -4z m379 -145 c151 -73 157 -286 10 -370 -38 -22 -54 -24 -157 -24 l-115 0 -3 208 -2 207 112 0 c93 0 119 -4 155 -21z"></path>
    <path d="M17287 3324 c-11 -11 -8 -773 3 -822 26 -111 94 -195 200 -246 62 -29 71 -31 185 -31 116 0 123 1 187 33 81 40 148 110 180 190 22 56 23 63 23 467 l0 410 -60 0 -60 0 -5 -400 c-5 -394 -5 -401 -28 -448 -47 -94 -142 -143 -261 -135 -78 6 -135 32 -179 83 -66 75 -66 70 -72 505 l-5 395 -50 3 c-28 2 -54 0 -58 -4z"></path>
    <path d="M19395 3318 c-3 -7 -4 -254 -3 -548 l3 -535 65 0 65 0 0 222 0 223 48 47 48 48 30 -35 c17 -19 65 -80 107 -135 42 -55 125 -162 185 -237 l108 -138 69 0 c38 0 71 4 74 8 2 4 -103 147 -234 317 l-238 310 214 216 c118 119 214 224 214 233 0 13 -12 16 -72 16 l-72 0 -238 -237 -238 -237 -2 234 -3 235 -63 3 c-44 2 -64 -1 -67 -10z"></path>
    <path d="M23587 3323 c-4 -3 -7 -251 -7 -550 l0 -543 360 0 361 0 -3 58 -3 57 -295 5 -295 5 0 180 0 180 255 5 255 5 0 55 0 55 -255 5 -255 5 0 180 0 180 285 5 285 5 0 55 0 55 -341 3 c-187 1 -343 -1 -347 -5z"></path>
    <path d="M24548 3324 c-5 -4 -8 -252 -8 -551 l0 -543 60 0 60 0 2 213 3 212 104 0 104 0 131 -212 131 -212 73 -1 c41 0 72 4 72 10 0 5 -19 40 -43 77 -24 38 -85 137 -136 221 l-94 153 55 49 c81 72 103 127 103 260 0 98 -2 109 -30 159 -35 63 -94 112 -173 142 -49 19 -83 23 -232 27 -96 2 -178 1 -182 -4z m370 -140 c157 -65 171 -285 24 -372 -44 -25 -55 -27 -162 -27 l-115 0 -3 208 -2 207 110 0 c77 0 122 -5 148 -16z"></path>
    <path d="M26485 3318 c-3 -7 -4 -254 -3 -548 l3 -535 63 -3 62 -3 0 246 0 245 295 0 295 0 0 -245 0 -245 59 0 59 0 7 443 c3 243 5 489 3 547 l-3 105 -60 0 -60 0 -3 -242 -2 -243 -295 0 -295 0 -2 243 -3 242 -58 3 c-40 2 -59 -1 -62 -10z"></path>
    <path d="M29928 3324 c-5 -4 -8 -252 -8 -551 l0 -543 198 0 c138 0 216 5 260 15 178 42 328 180 383 354 31 98 30 250 -3 352 -58 178 -192 302 -383 354 -65 18 -434 34 -447 19z m484 -161 c133 -63 218 -176 240 -321 21 -132 -19 -267 -106 -360 -90 -96 -194 -132 -378 -132 l-118 0 0 426 0 426 148 -4 c140 -3 150 -5 214 -35z"></path>
    <path d="M31047 3324 c-4 -4 -7 -252 -7 -551 l0 -543 60 0 60 0 -2 548 -3 547 -50 3 c-28 2 -54 0 -58 -4z"></path>
    <path d="M31641 3314 c-149 -54 -228 -180 -199 -319 8 -41 20 -60 67 -105 57 -57 85 -71 269 -141 92 -34 155 -77 190 -129 20 -29 23 -45 20 -92 -13 -177 -261 -243 -487 -128 -66 33 -64 33 -100 -37 l-21 -42 43 -26 c97 -56 151 -69 302 -69 123 -1 147 2 196 22 146 59 222 200 189 355 -21 102 -98 180 -237 237 -43 18 -111 46 -152 63 -132 54 -181 120 -148 199 33 79 96 111 217 111 63 -1 105 -7 161 -25 l77 -25 23 49 c14 29 19 52 13 57 -5 5 -40 19 -79 31 -94 30 -280 38 -344 14z"></path>
    <path d="M32367 3323 c-4 -3 -7 -251 -7 -550 l0 -543 360 0 360 0 0 60 0 60 -295 0 -295 0 0 185 0 185 253 2 252 3 3 58 3 57 -256 0 -255 0 0 185 0 185 285 0 286 0 -3 58 -3 57 -341 3 c-187 1 -343 -1 -347 -5z"></path>
  </g>
</svg>
